#N canvas 645 27 450 705 12;
#X obj 31 384 pack f f f;
#X msg 31 416 \$1 \, \$2 \$3;
#X obj 30 448 vline~;
#X obj 29 591 *~, f 36;
#X obj 31 480 tabread4~ grainData;
#X obj 31 300 t f f;
#X obj 62 347 +;
#X obj 112 301 * 44.1;
#X obj 29 47 inlet;
#X obj 104 237 r g-dur;
#X floatatom 104 268 5 0 0 0 - - -;
#X obj 29 630 outlet~;
#X floatatom 32 264 5 0 0 0 - - -;
#X obj 30 108 t f b, f 37;
#X obj 287 158 t b b;
#X obj 287 207 del 50;
#X msg 352 207 1;
#X msg 287 240 0;
#X obj 286 296 pack f 50;
#X obj 361 112 r g-dur;
#X obj 361 136 - 50;
#X obj 286 320 line~;
#X connect 0 0 1 0;
#X connect 1 0 2 0;
#X connect 2 0 4 0;
#X connect 3 0 11 0;
#X connect 4 0 3 0;
#X connect 5 0 0 0;
#X connect 5 1 6 0;
#X connect 6 0 0 1;
#X connect 7 0 6 1;
#X connect 8 0 13 0;
#X connect 9 0 10 0;
#X connect 10 0 7 0;
#X connect 10 0 0 2;
#X connect 12 0 5 0;
#X connect 13 0 12 0;
#X connect 13 1 14 0;
#X connect 14 0 15 0;
#X connect 14 1 16 0;
#X connect 15 0 17 0;
#X connect 16 0 18 0;
#X connect 17 0 18 0;
#X connect 18 0 21 0;
#X connect 19 0 20 0;
#X connect 20 0 15 1;
#X connect 21 0 3 1;
