#N canvas 1353 120 1104 970 12;
#X obj 37 42 bng 15 250 50 0 empty empty empty 17 7 0 10 -262130 -1
-1;
#X obj 37 71 openpanel;
#X msg 37 104 read -resize \$1 grainData;
#X obj 37 137 soundfiler;
#X floatatom 37 170 25 0 0 0 - - -;
#N canvas 0 22 450 278 (subpatch) 0;
#X array grainData 1.46309e+06 float 2;
#X coords 0 1 1.46309e+06 -1 200 140 1;
#X restore 828 32 graph;
#X obj 28 873 *~;
#X obj 70 873 hsl 128 15 0 1 0 0 empty empty Volume -2 -8 0 10 -204786
-1 -1 4900 1;
#X obj 28 905 dac~;
#X floatatom 558 346 5 0 0 0 - - -;
#X obj 558 370 s g-dur;
#X msg 31 632 next \$1;
#X obj 36 479 *~;
#X obj 36 509 snapshot~;
#X obj 35 327 expr 44100 / $f1;
#X obj 305 403 t b b;
#X obj 31 607 +;
#X obj 36 447 phasor~;
#X floatatom 559 554 12 0 0 0 - - -;
#X floatatom 839 500 5 0 750 0 - - -;
#X obj 839 525 delread4~ vdel;
#X obj 838 721 *~;
#X obj 877 720 hsl 128 15 0 1 0 0 empty empty delay_gain -2 -8 0 10
-204786 -1 -1 0 1;
#X obj 838 747 dac~;
#X obj 879 480 hsl 128 15 0 750 0 0 empty empty delay_amount -2 -8
0 10 -261234 -1 -1 1800 1;
#X obj 562 500 hsl 128 15 0 100 0 0 empty empty jitter -2 -8 0 10 -261234
-1 -1 0 1;
#X obj 69 763 delwrite~ vdel 1000;
#X obj 837 617 *~;
#X obj 878 596 hsl 128 15 0 1 0 0 empty empty feedback_amt -2 -8 0
10 -261234 -1 -1 3800 1;
#X obj 874 648 send~ fsig;
#X obj 69 736 receive~ fsig;
#X obj 31 657 clone grain 16;
#X obj 559 582 random;
#X floatatom 555 672 12 0 0 0 - - -;
#X obj 558 713 hsl 128 15 0 1.46309e+06 0 0 empty empty sample_location
-2 -8 0 10 -203904 -1 -1 7810 1;
#X text 554 432 jitter scaling;
#X obj 37 193 s file-dur;
#X obj 35 297 r file-dur;
#X obj 38 413 * 1;
#X floatatom 36 355 5 0 0 0 - - -;
#X floatatom 199 301 5 0 0 0 - - -;
#X obj 199 324 t b f;
#X obj 137 438 r file-dur;
#X obj 305 375 metro 124;
#X obj 305 341 tgl 15 0 empty empty empty 17 7 0 10 -262144 -1 -1 0
1;
#X floatatom 333 340 5 0 0 0 - - -;
#X obj 310 457 random 125;
#X obj 309 487 + 10;
#X text 555 643 timestamp;
#X text 833 421 delay & feedback;
#X text 553 279 grain duration;
#X text 300 304 metronome;
#X obj 199 270 r g_speed;
#X obj 68 827 r g_vol;
#X obj 558 310 r g_duration;
#X obj 559 525 * 1000;
#X obj 560 458 r jitter;
#X obj 876 444 r d_amt;
#X obj 875 563 r f_amt;
#X obj 875 689 r d_vol;
#X connect 0 0 1 0;
#X connect 1 0 2 0;
#X connect 2 0 3 0;
#X connect 3 0 4 0;
#X connect 4 0 36 0;
#X connect 6 0 8 0;
#X connect 6 0 8 1;
#X connect 7 0 6 1;
#X connect 9 0 10 0;
#X connect 11 0 31 0;
#X connect 12 0 13 0;
#X connect 13 0 16 0;
#X connect 14 0 39 0;
#X connect 15 0 13 0;
#X connect 15 0 46 0;
#X connect 15 1 32 0;
#X connect 16 0 33 0;
#X connect 16 0 11 0;
#X connect 17 0 12 0;
#X connect 18 0 32 1;
#X connect 19 0 20 0;
#X connect 20 0 21 0;
#X connect 20 0 27 0;
#X connect 21 0 23 0;
#X connect 21 0 23 1;
#X connect 22 0 21 1;
#X connect 24 0 19 0;
#X connect 25 0 55 0;
#X connect 27 0 29 0;
#X connect 28 0 27 1;
#X connect 30 0 26 0;
#X connect 31 0 6 0;
#X connect 31 0 26 0;
#X connect 32 0 16 1;
#X connect 33 0 34 0;
#X connect 37 0 14 0;
#X connect 38 0 17 0;
#X connect 39 0 38 0;
#X connect 40 0 41 0;
#X connect 41 0 38 0;
#X connect 41 1 38 1;
#X connect 42 0 12 1;
#X connect 43 0 15 0;
#X connect 44 0 43 0;
#X connect 45 0 43 1;
#X connect 46 0 47 0;
#X connect 47 0 45 0;
#X connect 52 0 40 0;
#X connect 53 0 7 0;
#X connect 54 0 9 0;
#X connect 55 0 18 0;
#X connect 56 0 25 0;
#X connect 57 0 24 0;
#X connect 58 0 28 0;
#X connect 59 0 22 0;
